<svg xmlns="http://www.w3.org/2000/svg" viewBox="0 0 120 60" width="120" height="60">
  <defs>
    <linearGradient id="bgGradient" x1="0%" y1="0%" x2="100%" y2="100%">
      <stop offset="0%" stop-color="#1f2937" />
      <stop offset="100%" stop-color="#111827" />
    </linearGradient>
    <linearGradient id="palmGradient" x1="0%" y1="0%" x2="100%" y2="100%">
      <stop offset="0%" stop-color="#8BC34A" />
      <stop offset="100%" stop-color="#4CAF50" />
    </linearGradient>
    <linearGradient id="coconutGradient" x1="0%" y1="0%" x2="100%" y2="100%">
      <stop offset="0%" stop-color="#795548" />
      <stop offset="100%" stop-color="#5D4037" />
    </linearGradient>
    <linearGradient id="goldGradient" x1="0%" y1="0%" x2="100%" y2="100%">
      <stop offset="0%" stop-color="#d4b675" />
      <stop offset="100%" stop-color="#c0a46d" />
    </linearGradient>
  </defs>
  
  <!-- Background Shape -->
  <rect x="0" y="0" width="120" height="60" rx="10" ry="10" fill="url(#bgGradient)" />
  <rect x="2" y="2" width="116" height="56" rx="8" ry="8" fill="none" stroke="url(#goldGradient)" stroke-width="1" />
  
  <!-- Palm Trees -->
  <g transform="translate(15, 8) scale(1.0)">
    <!-- Palm Tree 1 -->
    <path fill="url(#palmGradient)" d="M12,2C11.05,2 10.25,2.74 10.13,3.69L8.85,12.04C8.46,12.8 7.5,13.89 6.92,14.54C6.38,15.16 6.21,15.71 6.09,16.28C5.96,16.94 6.06,17.63 6.34,18.25C6.68,19 7.27,19.64 8.05,20.06C8.87,20.5 9.8,20.67 10.72,20.55C11.72,20.4 12.55,19.96 13.16,19.23C13.88,18.36 14.4,17.11 14.89,16.28C15.3,15.57 16.04,14.25 16.5,13.23L18.26,5.53C18.5,4.66 17.88,3.92 17,4H16.24C15.47,3.05 14.1,2 12,2Z" />
    <circle cx="7" cy="18" r="1" fill="url(#coconutGradient)" />
    <circle cx="12" cy="18" r="1" fill="url(#coconutGradient)" />
  </g>
  
  <!-- Coconut Halves -->
  <g transform="translate(50, 30)">
    <!-- Coconut Half 1 - Bottom half -->
    <path d="M0,-10 C11,-10 20,-5.5 20,5 C20,15.5 11,20 0,20 C-11,20 -20,15.5 -20,5 C-20,-5.5 -11,-10 0,-10 Z" fill="#5D4037" />
    <!-- Inner part -->
    <path d="M0,-8 C9,-8 16,-4.5 16,4 C16,12.5 9,16 0,16 C-9,16 -16,12.5 -16,4 C-16,-4.5 -9,-8 0,-8 Z" fill="#f5f5dc" />
    <!-- Coconut Texture -->
    <circle cx="-8" cy="2" r="1.5" fill="#5D4037" opacity="0.6" />
    <circle cx="6" cy="6" r="2" fill="#5D4037" opacity="0.6" />
    <circle cx="0" cy="-2" r="1" fill="#5D4037" opacity="0.6" />
    <circle cx="-5" cy="9" r="1.2" fill="#5D4037" opacity="0.6" />
  </g>
  
  <!-- Text -->
  <g transform="translate(85, 32)">
    <text font-family="Arial, sans-serif" font-weight="bold" font-size="14" fill="url(#goldGradient)">Bến Tre</text>
  </g>
</svg> 