<svg xmlns="http://www.w3.org/2000/svg" viewBox="0 0 140 40" width="140" height="40">
  <defs>
    <linearGradient id="goldGradient" x1="0%" y1="0%" x2="100%" y2="100%">
      <stop offset="0%" stop-color="#d4b675" />
      <stop offset="100%" stop-color="#c0a46d" />
    </linearGradient>
  </defs>
  
  <!-- Stylized Coconut Palm - One continuous line -->
  <path d="M20,30 C20,24 20,10 20,10 C20,10 17,14 15,16 C13,18 12,20 14,22 C16,24 18,23 19,21 M20,10 C20,10 23,14 25,16 C27,18 28,20 26,22 C24,24 22,23 21,21" 
    fill="none" 
    stroke="url(#goldGradient)" 
    stroke-width="1.5" 
    stroke-linecap="round"
    stroke-linejoin="round" />
  
  <!-- Elegant Text -->
  <text x="35" y="24" font-family="Arial, sans-serif" font-weight="400" font-size="16" fill="url(#goldGradient)" letter-spacing="1.5">BẾN TRE</text>
  
  <!-- Thin Horizontal Line -->
  <line x1="35" y1="28" x2="105" y2="28" stroke="url(#goldGradient)" stroke-width="0.5" />
  
  <!-- Tagline (optional) -->
  <text x="39" y="35" font-family="Arial, sans-serif" font-weight="300" font-size="7" fill="url(#goldGradient)" letter-spacing="0.5">XỨ DỪA</text>
</svg> 